<svg width="323" height="246" viewBox="0 0 323 246" fill="none" xmlns="http://www.w3.org/2000/svg">
<path d="M1 234V195C1 195 1 195 9.5 195C18 195 26.3703 206.52 15 215L21 233H6M30 233L43.5 203L56 233H37.5M63 202L76.5 232L89.5 202M136.5 234V202C136.5 202 134.079 201.993 143.5 202C152.921 202.007 159.171 210.949 148.5 217.5L156 233M164 233L177.5 203.5L190 233H171M196.5 202H208.5M221 202H208.75H208.5M208.5 202V234M268 233.5V202C268 202 266.981 201.671 275.5 202C284.019 202.329 289.81 210.573 279.5 218L287 233M295 202L308 230.5M308 230.5V245.5M308 230.5L320.5 202H300.5M111 202C101.5 202 98.5003 205.5 98.5 217.5C98.4998 229.5 102.5 234 111 234C119.5 234 123 226.5 123 217.5C123 208.5 120.5 202 111 202ZM242.5 233.5C235 234 229.5 228.5 229.5 217C229.5 205.5 234.5 202 242.5 202C250.5 202 253.5 205.5 254 217C254.5 228.5 250 233 242.5 233.5Z" stroke="white" stroke-width="2"/>
<path d="M94 119L161.5 157.5L228 119V41.5L161.5 3L94 42V119Z" stroke="white" stroke-width="4"/>
<path d="M145 75L136.5 80.5L145 86.5M165 66L151.5 99M172.5 75L182 80.5L172.5 86.5M124.5 56.5V110.5L195 109V56.5M124.5 56.5H195M124.5 56.5V51C124.5 49.8954 125.395 49 126.5 49H193C194.105 49 195 49.8954 195 51V56.5" stroke="white" stroke-width="3"/>
</svg>
